<svg xmlns="http://www.w3.org/2000/svg" viewBox="0 0 800 400">
  <style>
    :root {
      --bg-color: white;
      --fg-color: #24292e;
      --acid-color: #0366d6;
      --base-color: #d73a49;
      --hydrogen-color: #6f42c1;
      --arrow-color: #586069;
      --water-color: #79b8ff;
    }
    
    @media (prefers-color-scheme: dark) {
      :root {
        --bg-color: #0d1117;
        --fg-color: #c9d1d9;
        --acid-color: #58a6ff;
        --base-color: #ff7b72;
        --hydrogen-color: #d2a8ff;
        --arrow-color: #8b949e;
        --water-color: #388bfd;
      }
    }
    
    .container {
      fill: var(--bg-color);
    }
    
    .text {
      font-family: -apple-system, BlinkMacSystemFont, "Segoe UI", Helvetica, Arial, sans-serif;
      font-size: 16px;
      font-weight: 500;
      fill: var(--fg-color);
    }
    
    .title {
      font-size: 20px;
      font-weight: 600;
      text-anchor: middle;
    }
    
    .subtitle {
      font-size: 14px;
      text-anchor: middle;
      fill-opacity: 0.8;
    }
    
    .acid {
      fill: var(--acid-color);
      stroke: var(--acid-color);
    }
    
    .base {
      fill: var(--base-color);
      stroke: var(--base-color);
    }
    
    .hydrogen {
      fill: var(--hydrogen-color);
      stroke: var(--hydrogen-color);
    }
    
    .arrow {
      stroke: var(--arrow-color);
      stroke-width: 2;
      fill: none;
    }
    
    .arrowhead {
      fill: var(--arrow-color);
    }
    
    .water {
      fill: var(--water-color);
      fill-opacity: 0.1;
      stroke: var(--water-color);
      stroke-opacity: 0.3;
    }
  </style>

  <!-- Background -->
  <rect class="container" width="800" height="400" rx="8" />
  
  <!-- Water molecules (background) -->
  <g class="water">
    <circle cx="120" cy="280" r="8" />
    <circle cx="132" cy="280" r="8" />
    <circle cx="126" cy="268" r="8" />
    
    <circle cx="680" cy="280" r="8" />
    <circle cx="692" cy="280" r="8" />
    <circle cx="686" cy="268" r="8" />
    
    <circle cx="220" cy="320" r="8" />
    <circle cx="232" cy="320" r="8" />
    <circle cx="226" cy="308" r="8" />
    
    <circle cx="580" cy="320" r="8" />
    <circle cx="592" cy="320" r="8" />
    <circle cx="586" cy="308" r="8" />
    
    <circle cx="350" cy="340" r="8" />
    <circle cx="362" cy="340" r="8" />
    <circle cx="356" cy="328" r="8" />
    
    <circle cx="450" cy="340" r="8" />
    <circle cx="462" cy="340" r="8" />
    <circle cx="456" cy="328" r="8" />
  </g>
  
  <!-- Title -->
  <text class="text title" x="400" y="40">Acid-Base Equilibrium</text>
  <text class="text subtitle" x="400" y="65">Dynamic equilibrium in aqueous solution</text>

  <!-- Left side: Acid (HA) -->
  <g transform="translate(200, 180)">
    <circle class="acid" cx="0" cy="0" r="40" stroke-width="2" fill-opacity="0.7" />
    <text class="text" x="0" y="5" text-anchor="middle">HA</text>
  </g>
  
  <!-- Right side: Conjugate base (A-) and hydrogen ion (H+) -->
  <g transform="translate(600, 150)">
    <circle class="base" cx="0" cy="0" r="35" stroke-width="2" fill-opacity="0.7" />
    <text class="text" x="0" y="5" text-anchor="middle">A-</text>
  </g>
  
  <g transform="translate(600, 230)">
    <circle class="hydrogen" cx="0" cy="0" r="20" stroke-width="2" fill-opacity="0.7" />
    <text class="text" x="0" y="5" text-anchor="middle">H+</text>
  </g>

  <!-- Forward reaction arrow -->
  <path class="arrow" d="M 250 180 C 350 180, 450 180, 550 150" />
  <polygon class="arrowhead" points="545,145 560,150 545,155" />
  
  <!-- Reverse reaction arrow -->
  <path class="arrow" d="M 550 210 C 450 210, 350 210, 250 190" />
  <polygon class="arrowhead" points="255,195 240,190 255,185" />
  
  <!-- Equilibrium equation -->
  <text class="text" x="400" y="120" text-anchor="middle">HA ⇌ A- + H+</text>
</svg>
