<svg xmlns="http://www.w3.org/2000/svg" viewBox="0 0 800 500">
  <style>
    /* Theme-adaptive styles */
    :root {
      --bg-color: white;
      --fg-color: #333;
      --highlight-color: #0066cc;
      --electron-color-high: rgba(255, 0, 0, 0.7);
      --electron-color-med: rgba(255, 0, 0, 0.4);
      --electron-color-low: rgba(255, 0, 0, 0.1);
      --proton-color: #333;
      --bond-color: #555;
      --orbit-color: rgba(0, 0, 0, 0.1);
      --arrow-color: #666;
      --label-color: #333;
    }
    
    @media (prefers-color-scheme: dark) {
      :root {
        --bg-color: #222;
        --fg-color: #eee;
        --highlight-color: #4da6ff;
        --electron-color-high: rgba(255, 100, 100, 0.8);
        --electron-color-med: rgba(255, 100, 100, 0.5);
        --electron-color-low: rgba(255, 100, 100, 0.2);
        --proton-color: #ddd;
        --bond-color: #aaa;
        --orbit-color: rgba(255, 255, 255, 0.1);
        --arrow-color: #ccc;
        --label-color: #eee;
      }
    }
    
    .svg-bg {
      fill: var(--bg-color);
    }
    
    text {
      font-family: 'Arial', sans-serif;
      fill: var(--label-color);
      font-size: 14px;
    }
    
    .title {
      font-size: 22px;
      font-weight: bold;
      text-anchor: middle;
    }
    
    .subtitle {
      font-size: 14px;
      text-anchor: middle;
    }
    
    .orbital {
      fill-opacity: 0.5;
      stroke: var(--fg-color);
      stroke-width: 0.5;
    }
    
    .atom {
      stroke: var(--fg-color);
      stroke-width: 1;
    }
    
    .bond {
      stroke: var(--bond-color);
      stroke-width: 2;
      stroke-linecap: round;
    }
    
    .electron-cloud-high {
      fill: var(--electron-color-high);
    }
    
    .electron-cloud-med {
      fill: var(--electron-color-med);
    }
    
    .electron-cloud-low {
      fill: var(--electron-color-low);
    }
    
    .arrow {
      stroke: var(--arrow-color);
      stroke-width: 2;
      fill: none;
    }
    
    .arrow-head {
      fill: var(--arrow-color);
    }
    
    .orbit {
      fill: none;
      stroke: var(--orbit-color);
      stroke-width: 1;
    }
    
    .highlight {
      fill: var(--highlight-color);
    }
    
    .atom-label {
      font-weight: bold;
      text-anchor: middle;
      dominant-baseline: middle;
    }
    
    .panel {
      fill: var(--bg-color);
      stroke: var(--fg-color);
      stroke-width: 1;
      rx: 10;
      ry: 10;
    }
  </style>

  <!-- Background -->
  <rect width="800" height="500" class="svg-bg" />
  
  <!-- Title -->
  <text x="400" y="30" class="title">Proton Transfer in Acid-Base Reaction</text>
  <text x="400" y="55" class="subtitle">Visualization of Electron Density Shifts</text>
  
  <!-- Initial State (Left Side) -->
  <g transform="translate(200, 250)">
    <!-- Acid Molecule -->
    <circle cx="0" cy="0" r="35" class="atom" fill="var(--bg-color)" />
    <text x="0" y="0" class="atom-label">H</text>
    <text x="0" y="20" class="atom-label" font-size="10">Acid</text>
    
    <line x1="35" y1="0" x2="85" y2="0" class="bond" />
    
    <circle cx="120" cy="0" r="40" class="atom" fill="var(--bg-color)" />
    <text x="120" y="0" class="atom-label">A</text>
    
    <!-- Electron Orbitals for Acid -->
    <ellipse cx="120" cy="0" rx="65" ry="45" transform="rotate(-15, 120, 0)" class="orbit" />
    <ellipse cx="120" cy="0" rx="60" ry="50" transform="rotate(30, 120, 0)" class="orbit" />
    
    <!-- Electron Cloud Visualization -->
    <ellipse cx="60" cy="0" rx="30" ry="25" class="electron-cloud-high" transform="rotate(-10, 60, 0)" />
    <ellipse cx="90" cy="-5" rx="40" ry="30" class="electron-cloud-med" transform="rotate(10, 90, -5)" />
    <ellipse cx="120" cy="0" rx="50" ry="35" class="electron-cloud-low" transform="rotate(-5, 120, 0)" />
  </g>
  
  <!-- Plus Sign -->
  <text x="400" y="250" font-size="30" text-anchor="middle" fill="var(--fg-color)">+</text>
  
  <!-- Base Molecule (Initial State) -->
  <g transform="translate(500, 250)">
    <!-- Base -->
    <circle cx="0" cy="0" r="40" class="atom" fill="var(--bg-color)" />
    <text x="0" y="0" class="atom-label">B</text>
    <text x="0" y="20" class="atom-label" font-size="10">Base</text>
    
    <!-- Electron Orbitals for Base -->
    <ellipse cx="0" cy="0" rx="65" ry="55" transform="rotate(20, 0, 0)" class="orbit" />
    <ellipse cx="0" cy="0" rx="60" ry="45" transform="rotate(-25, 0, 0)" class="orbit" />
    
    <!-- Electron Cloud for Base (Lone Pair) -->
    <ellipse cx="-25" cy="-15" rx="25" ry="20" class="electron-cloud-high" transform="rotate(-15, -25, -15)" />
    <ellipse cx="0" cy="0" rx="55" ry="45" class="electron-cloud-low" transform="rotate(10, 0, 0)" />
  </g>

  <!-- Arrow -->
  <path d="M400,280 C400,320 400,320 400,360" class="arrow" />
  <polygon points="400,370 395,360 405,360" class="arrow-head" />

  <!-- Final State (Bottom) -->
  <g transform="translate(250, 400)">
    <!-- Conjugate Base -->
    <circle cx="0" cy="0" r="40" class="atom" fill="var(--bg-color)" />
    <text x="0" y="0" class="atom-label">A</text>
    <text x="0" y="20" class="atom-label" font-size="10">Conj. Base</text>
    
    <!-- Electron Orbitals for Conjugate Base -->
    <ellipse cx="0" cy="0" rx="70" ry="50" transform="rotate(15, 0, 0)" class="orbit" />
    <ellipse cx="0" cy="0" rx="65" ry="55" transform="rotate(-20, 0, 0)" class="orbit" />
    
    <!-- Electron Cloud for Conjugate Base -->
    <ellipse cx="-25" cy="-15" rx="30" ry="25" class="electron-cloud-high" transform="rotate(-10, -25, -15)" />
    <ellipse cx="0" cy="0" rx="55" ry="45" class="electron-cloud-med" transform="rotate(5, 0, 0)" />
  </g>

  <!-- Plus Sign -->
  <text x="400" y="400" font-size="30" text-anchor="middle" fill="var(--fg-color)">+</text>

  <!-- Conjugate Acid (Final State) -->
  <g transform="translate(550, 400)">
    <!-- Conjugate Acid -->
    <circle cx="0" cy="0" r="35" class="atom" fill="var(--bg-color)" />
    <text x="0" y="0" class="atom-label">H</text>
    
    <line x1="35" y1="0" x2="85" y2="0" class="bond" />
    
    <circle cx="120" cy="0" r="40" class="atom" fill="var(--bg-color)" />
    <text x="120" y="0" class="atom-label">B</text>
    <text x="60" y="20" class="atom-label" font-size="10">Conj. Acid</text>
    
    <!-- Electron Orbitals for Conjugate Acid -->
    <ellipse cx="60" cy="0" rx="100" ry="60" transform="rotate(-10, 60, 0)" class="orbit" />
    <ellipse cx="60" cy="0" rx="90" ry="50" transform="rotate(20, 60, 0)" class="orbit" />
    
    <!-- Electron Cloud Visualization -->
    <ellipse cx="90" cy="-5" rx="40" ry="30" class="electron-cloud-high" transform="rotate(5, 90, -5)" />
    <ellipse cx="60" cy="0" rx="85" ry="45" class="electron-cloud-low" transform="rotate(-5, 60, 0)" />
  </g>

  <!-- Electron Transfer Arrow -->
  <path d="M450,220 C500,280 350,280 400,340" class="arrow" stroke-dasharray="5,3" />
  <circle cx="450" cy="220" r="8" class="highlight" />
  <circle cx="400" cy="340" r="8" class="highlight" />

  <!-- Legend -->
  <g transform="translate(650, 100)">
    <rect x="0" y="0" width="120" height="120" class="panel" />
    <text x="60" y="20" text-anchor="middle" font-weight="bold">Legend</text>
    
    <circle cx="20" cy="40" r="10" class="electron-cloud-high" />
    <text x="35" y="45" text-anchor="start">High Density</text>
    
    <circle cx="20" cy="70" r="10" class="electron-cloud-med" />
    <text x="35" y="75" text-anchor="start">Med Density</text>
    
    <circle cx="20" cy="100" r="10" class="electron-cloud-low" />
    <text x="35" y="105" text-anchor="start">Low Density</text>
  </g>
</svg>
